<svg version="1.1" xmlns="http://www.w3.org/2000/svg" viewBox="0 0 606.5588332186627 297.7312316894531" width="606.5588332186627" height="297.7312316894531">
  <!-- svg-source:excalidraw -->
  
  <defs>
    <style class="style-fonts">
      @font-face {
        font-family: "Virgil";
        src: url("https://excalidraw.com/Virgil.woff2");
      }
      @font-face {
        font-family: "Cascadia";
        src: url("https://excalidraw.com/Cascadia.woff2");
      }
    </style>
  </defs>
  <rect x="0" y="0" width="606.5588332186627" height="297.7312316894531" fill="#ffffff"/><g stroke-linecap="round" transform="translate(18.584154778960055 22.77668976283462) rotate(0 17.905122528401392 27.170028500843188)"><path d="M-0.81 0.16 L33.84 0.47 L36.44 54.59 L-0.84 54.12" stroke="none" stroke-width="0" fill="#fff"/><path d="M1.2 0.62 C7.33 0.02, 17.5 1.93, 36.57 -0.06 M0.05 -0.24 C11.4 -0.16, 22.91 -0.84, 36.31 -0.27 M35.36 1 C37.6 17.73, 37.76 37.78, 34.76 54.88 M36.16 -0.23 C34.9 20.09, 35.07 38.92, 35.64 54.6 M34.78 55.57 C24.65 55.58, 10.9 55.64, 0.35 53.52 M35.6 54.92 C25.92 54.79, 16.8 53.46, -0.65 54.17 M-0.81 54.08 C-1.72 32.01, 0.09 12.4, -1.28 1.98 M-0.68 53.85 C0.16 33.35, -0.04 12.06, -0.24 -0.36" stroke="#c92a2a" stroke-width="2" fill="none"/></g><g stroke-linecap="round" transform="translate(14.760147223694162 19.219867948029105) rotate(0 17.905122528401392 27.170028500843188)"><path d="M-1.97 0.47 L36.44 0.25 L34.97 54.12 L-1.26 54.53" stroke="none" stroke-width="0" fill="#fff"/><path d="M-1.23 0.02 C11.08 1.81, 22.18 -0.17, 36.47 -1.13 M-0.52 -0.27 C8.72 -0.86, 19.8 -0.19, 36.31 0.62 M37.26 -1.31 C37.3 13.55, 34.63 28.22, 37.01 54.36 M34.89 0.53 C35.26 20.49, 35.83 41.66, 36.16 55.29 M36.64 55.69 C25.32 55.97, 17.06 53.74, -0.88 56.22 M35.09 55.12 C27.72 54.01, 20.33 54.38, 0.9 55.21 M-1.24 53.22 C0.79 36.23, -1.06 19.12, 1.91 1.37 M0.53 54.83 C0.7 43.95, 0.13 31.83, -0.4 0.08" stroke="#c92a2a" stroke-width="2" fill="none"/></g><g stroke-linecap="round" transform="translate(10 15.037916321416446) rotate(0 17.905122528401392 27.170028500843188)"><path d="M0.63 0.25 L34.97 -0.22 L34.55 54.53 L-1.17 54.43" stroke="none" stroke-width="0" fill="#fff"/><path d="M0.37 1.92 C12.62 -0.06, 24.38 -1.13, 35.2 0.1 M-0.94 -0.95 C10.38 -0.18, 20.27 0.72, 35.36 -0.22 M37.43 -0.29 C35.15 19.57, 37.41 38.08, 37.43 55.03 M35.07 -0.21 C35.14 15.32, 35.66 31.08, 35.48 53.83 M34.87 55.75 C23.23 53.76, 9.06 56.46, -1.86 53.93 M35.14 53.8 C22.32 54.45, 11.04 55.49, 0.42 53.94 M0.57 54.82 C-0.95 40.73, 2.24 24.53, -1.92 -1.36 M0.34 55.03 C-0.53 40.36, -0.69 27.18, -0.98 0.24" stroke="#c92a2a" stroke-width="2" fill="none"/></g><g stroke-linecap="round"><g transform="translate(16.0730828100219 39.736353774962026) rotate(0 11.80014737451097 -0.7435709304486551)"><path d="M1.15 0.46 C4.56 0.5, 16.82 0.87, 20.45 0.47 C24.08 0.08, 22.39 -1.54, 22.92 -1.93 M0.3 -0.35 C3.55 -0.7, 15.9 -1.36, 19.48 -1.44 C23.06 -1.52, 21.06 -0.9, 21.8 -0.81" stroke="#c92a2a" stroke-width="2" fill="none"/></g></g><mask/><g stroke-linecap="round"><g transform="translate(17.013071087032017 23.794046530896196) rotate(0 11.543669285457696 -0.7101641205299316)"><path d="M-0.03 0.4 C1.08 0.02, 3.99 -1.64, 7.85 -1.79 C11.71 -1.93, 20.71 -0.67, 23.14 -0.45 M-1.51 -0.44 C-0.1 -0.68, 6.22 -0.63, 10.21 -0.44 C14.19 -0.25, 20.38 0.57, 22.41 0.71" stroke="#c92a2a" stroke-width="2" fill="none"/></g></g><mask/><g stroke-linecap="round"><g transform="translate(16.974260920987376 57.940304625900524) rotate(0 12.245212293750484 0.08868763325600781)"><path d="M-0.68 -0.37 C1.57 -0.5, 10.25 -0.62, 13.44 -0.42 C16.63 -0.21, 16.78 1.13, 18.44 0.85 C20.09 0.56, 22.26 -1.77, 23.37 -2.13 M1.17 -1.6 C3.26 -1.59, 9.83 0.37, 12.52 0.97 C15.22 1.57, 15.59 2.43, 17.34 2 C19.09 1.56, 21.93 -1.11, 23.03 -1.63" stroke="#c92a2a" stroke-width="2" fill="none"/></g></g><mask/><g stroke-linecap="round"><g transform="translate(15.361020972930987 63.636795638777016) rotate(0 13.783003189040613 -0.4267450557357506)"><path d="M0.06 -0.29 C0.92 -0.38, 3.36 -0.7, 4.53 -0.92 C5.69 -1.13, 3.8 -1.71, 7.05 -1.56 C10.3 -1.42, 20.51 -0.21, 24.03 -0.02 C27.55 0.17, 27.67 -0.18, 28.17 -0.42 M-1.37 -1.48 C-0.05 -1.37, 5.12 0.34, 6.91 0.45 C8.7 0.56, 6.41 -0.92, 9.36 -0.84 C12.3 -0.77, 21.65 0.71, 24.59 0.91 C27.54 1.12, 26.42 0.95, 27.02 0.36" stroke="#c92a2a" stroke-width="2" fill="none"/></g></g><mask/><g stroke-linecap="round"><g transform="translate(15.5053404229418 31.42470106655037) rotate(0 11.888513774941117 0.3276022650092756)"><path d="M-0.63 -0.32 C0.71 -0.52, 3.93 -1.6, 8.1 -1.44 C12.26 -1.28, 21.66 0.1, 24.37 0.63 M1.25 -1.54 C2.94 -1.6, 6.44 -1.05, 10.22 -0.5 C14 0.05, 21.46 1.77, 23.92 1.77" stroke="#c92a2a" stroke-width="2" fill="none"/></g></g><mask/><g stroke-linecap="round"><g transform="translate(15.559800750345289 48.8961393873397) rotate(0 11.888513774941117 0.3276022650092756)"><path d="M-1.12 -1.14 C-0.24 -1.02, 2.87 0.13, 4.7 0.4 C6.52 0.66, 6.73 0.4, 9.82 0.44 C12.91 0.49, 20.81 0.46, 23.23 0.69 M0.49 0.88 C1.32 1.2, 2.58 2.16, 4.06 1.76 C5.54 1.36, 6.18 -1.49, 9.37 -1.51 C12.56 -1.53, 20.89 0.95, 23.19 1.65" stroke="#c92a2a" stroke-width="2" fill="none"/></g></g><mask/><g stroke-linecap="round" transform="translate(78.8240920077252 10) rotate(0 258.86737060546875 38.53240966796875)"><path d="M19.27 0 M19.27 0 C117.97 -0.6, 217.68 -1.43, 498.47 0 M19.27 0 C151.98 -1.16, 285.2 -1.74, 498.47 0 M498.47 0 C511.85 1.2, 517.76 8.04, 517.73 19.27 M498.47 0 C512.11 -0.52, 515.62 7.63, 517.73 19.27 M517.73 19.27 C518.17 28.66, 519.55 36, 517.73 57.8 M517.73 19.27 C518.65 28.38, 518.68 38.6, 517.73 57.8 M517.73 57.8 C516.91 69.76, 513.19 75.21, 498.47 77.06 M517.73 57.8 C517.26 71.99, 509.66 78.86, 498.47 77.06 M498.47 77.06 C386.66 76.49, 275.89 76.07, 19.27 77.06 M498.47 77.06 C373.83 75.9, 249.78 75.49, 19.27 77.06 M19.27 77.06 C8.4 78.97, 1.37 68.72, 0 57.8 M19.27 77.06 C4.86 75.93, 1.23 71.78, 0 57.8 M0 57.8 C-0.99 44.14, -0.1 30.13, 0 19.27 M0 57.8 C-0.54 45.22, -0.75 32.95, 0 19.27 M0 19.27 C-1.17 6.51, 5 0.21, 19.27 0 M0 19.27 C-2.02 6.41, 7.01 -2.02, 19.27 0" stroke="#000000" stroke-width="1" fill="none"/></g><g stroke-linecap="round" transform="translate(94.62652120694395 17.691650390625) rotate(0 53.823760986328125 31.16583251953125)"><path d="M16.57 -0.55 L93.07 1.24 L100.65 1.74 L106.46 7.54 L106.1 13.55 L107.36 45.7 L106 57.45 L101.59 61.76 L92.76 61.88 L13.75 63.38 L4.6 59.71 L1.85 56.76 L0.94 52.3 L-0.42 10.9 L3.42 6.92 L7.44 1.25 L17 0.35" stroke="none" stroke-width="0" fill="#0000"/><path d="M15.58 0 M15.58 0 C33.53 -1.13, 56.36 -2.16, 92.06 0 M15.58 0 C43.85 0.25, 74.32 1.29, 92.06 0 M92.06 0 C103.3 -0.81, 107.39 3.95, 107.65 15.58 M92.06 0 C101.16 0.65, 108.2 3.72, 107.65 15.58 M107.65 15.58 C106.02 26.65, 106.96 41.51, 107.65 46.75 M107.65 15.58 C107.52 26.11, 107.35 37.44, 107.65 46.75 M107.65 46.75 C105.68 57.61, 103.09 62.58, 92.06 62.33 M107.65 46.75 C106.69 56.88, 101.01 62.55, 92.06 62.33 M92.06 62.33 C73.81 60.03, 55.12 62.3, 15.58 62.33 M92.06 62.33 C75.94 63.96, 59.46 62.67, 15.58 62.33 M15.58 62.33 C5.89 62.83, -1.23 55.51, 0 46.75 M15.58 62.33 C5.49 63.5, -0.51 57.38, 0 46.75 M0 46.75 C1.85 35, 0.17 25.15, 0 15.58 M0 46.75 C0.58 36.9, -0.02 28.45, 0 15.58 M0 15.58 C-0.83 4.45, 6.11 -0.9, 15.58 0 M0 15.58 C-0.6 5.34, 6.25 0.46, 15.58 0" stroke="#000000" stroke-width="0.5" fill="none"/></g><g stroke-linecap="round" transform="translate(216.4944411288189 17.92022705078125) rotate(0 54.75311279296875 31.16583251953125)"><path d="M16.59 1.24 L93.02 -0.45 L104.42 3.64 L106.01 7.7 L108.97 10.88 L110.05 47.95 L107.34 57.86 L104.11 59.68 L92.09 63.38 L14.1 61.91 L5.74 60.66 L2.89 58.15 L-0.42 49.37 L1.47 12.76 L3.55 5.15 L7.5 2.54 L14.76 -0.88" stroke="none" stroke-width="0" fill="#0000"/><path d="M15.58 0 M15.58 0 C47.62 -1.28, 78.89 -1.18, 93.92 0 M15.58 0 C35.73 1.01, 54.49 -0.27, 93.92 0 M93.92 0 C104.05 -1.24, 108.38 5.76, 109.51 15.58 M93.92 0 C104.87 -1.48, 111.78 7.39, 109.51 15.58 M109.51 15.58 C108.22 28.14, 110.19 39.24, 109.51 46.75 M109.51 15.58 C109.03 27.15, 108.45 38.8, 109.51 46.75 M109.51 46.75 C110.14 57.39, 103.48 62.11, 93.92 62.33 M109.51 46.75 C108.06 57.35, 102.97 62.44, 93.92 62.33 M93.92 62.33 C75.98 62.15, 56.29 61.56, 15.58 62.33 M93.92 62.33 C63.41 62.75, 33.53 63.33, 15.58 62.33 M15.58 62.33 C3.97 60.71, 0.26 58.15, 0 46.75 M15.58 62.33 C4.68 62.58, 0.6 57.28, 0 46.75 M0 46.75 C-0.1 33.25, -0.24 20.5, 0 15.58 M0 46.75 C-0.39 35.97, -0.51 23.73, 0 15.58 M0 15.58 C0.91 4.3, 4.67 0.13, 15.58 0 M0 15.58 C1.05 5.66, 5.03 1.42, 15.58 0" stroke="#000000" stroke-width="0.5" fill="none"/></g><g stroke-linecap="round" transform="translate(339.1209059725689 17.92022705078125) rotate(0 54.75311279296875 31.16583251953125)"><path d="M14.68 -0.45 L94.93 1.45 L102.11 3.81 L107.02 5.03 L109.8 13.13 L109.53 48.37 L108.01 55.79 L101.58 61.19 L92.44 61.91 L15.24 62.85 L6.78 62.04 L1.53 55.22 L1.47 51.23 L1.6 10.99 L3.61 6.44 L5.27 1.31 L17.46 -1.86" stroke="none" stroke-width="0" fill="#0000"/><path d="M15.58 0 M15.58 0 C39.02 -0.78, 58.25 -0.74, 93.92 0 M15.58 0 C38.2 -1.09, 59.84 -1.31, 93.92 0 M93.92 0 C103.19 0.57, 109.99 3.91, 109.51 15.58 M93.92 0 C106.59 2.19, 111.09 2.98, 109.51 15.58 M109.51 15.58 C110.34 23.48, 110.73 29.57, 109.51 46.75 M109.51 15.58 C108.4 24.05, 109.7 32.16, 109.51 46.75 M109.51 46.75 C108.67 56.92, 103.06 62.52, 93.92 62.33 M109.51 46.75 C108.16 57.24, 102.68 62.57, 93.92 62.33 M93.92 62.33 C75.56 62.45, 62.46 62.75, 15.58 62.33 M93.92 62.33 C63.3 62.32, 31.36 61.26, 15.58 62.33 M15.58 62.33 C5.45 63.34, -0.44 57.35, 0 46.75 M15.58 62.33 C5.79 62.47, 2.12 59.29, 0 46.75 M0 46.75 C0.02 38.06, 1.24 33.58, 0 15.58 M0 46.75 C-0.32 38.35, 0.55 30.26, 0 15.58 M0 15.58 C-0.52 5.32, 6.11 0.4, 15.58 0 M0 15.58 C-0.16 6.62, 6.23 -0.23, 15.58 0" stroke="#000000" stroke-width="0.5" fill="none"/></g><g stroke-linecap="round" transform="translate(139.99047617964385 24.994964599609375) rotate(0 24.922393798828125 20.649063110351562)"><path d="M2.75 2.39 C2.75 2.39, 2.75 2.39, 2.75 2.39 M2.75 2.39 C2.75 2.39, 2.75 2.39, 2.75 2.39 M3.14 8.03 C5.07 6.55, 7.47 3.93, 10.36 -0.27 M3.14 8.03 C5.26 5.68, 7.07 3.97, 10.36 -0.27 M2.88 14.43 C4.17 10.87, 9.31 6.93, 13.38 2.35 M2.88 14.43 C6.41 9.79, 11.62 6.06, 13.38 2.35 M2.62 20.83 C6.84 13.53, 14.04 8.93, 18.37 2.71 M2.62 20.83 C6.84 15.44, 9.19 11.64, 18.37 2.71 M2.36 27.23 C11.26 17.88, 16.82 8.74, 24.01 2.32 M2.36 27.23 C9.59 19.62, 15.53 11.71, 24.01 2.32 M2.75 32.87 C9.04 24.44, 15.38 16.94, 29 2.68 M2.75 32.87 C10.5 24.93, 18.51 15.96, 29 2.68 M2.49 39.27 C12.3 27.36, 19.37 18.27, 34.64 2.29 M2.49 39.27 C14.11 26.32, 26.04 14.23, 34.64 2.29 M6.82 40.38 C14.37 30.12, 23.12 23.86, 40.94 1.14 M6.82 40.38 C15.31 29.72, 24.96 19.54, 40.94 1.14 M11.15 41.5 C20.88 30.45, 31.05 20.75, 45.27 2.25 M11.15 41.5 C21.89 30.71, 31.32 18.66, 45.27 2.25 M16.14 41.86 C24.7 33.04, 33.53 20.33, 48.94 4.12 M16.14 41.86 C23.63 34.38, 30.65 25.89, 48.94 4.12 M21.78 41.46 C32.28 31.88, 39.67 22.81, 50.65 8.25 M21.78 41.46 C30.78 31.62, 37.99 22.9, 50.65 8.25 M26.77 41.82 C31.13 36.45, 38.22 28.24, 52.36 12.39 M26.77 41.82 C36.25 31.8, 45.25 20.77, 52.36 12.39 M32.41 41.43 C38.97 32.54, 46.56 27.1, 52.1 18.79 M32.41 41.43 C38.42 33.57, 44.63 27.41, 52.1 18.79 M37.4 41.79 C43.41 35.18, 49.59 29.12, 52.49 24.43 M37.4 41.79 C42.7 35.74, 48 30.39, 52.49 24.43 M41.73 42.9 C44.58 41.34, 47.26 37.49, 50.92 32.34 M41.73 42.9 C45.11 40.45, 47.89 36.77, 50.92 32.34" stroke="#fa5252" stroke-width="0.5" fill="none"/><path d="M10.32 0 M10.32 0 C20.06 1.67, 31.59 -0.24, 39.52 0 M10.32 0 C19.12 0.89, 29.51 0.67, 39.52 0 M39.52 0 C47.13 -1.67, 50.47 1.82, 49.84 10.32 M39.52 0 C48.08 1.31, 49.75 4.78, 49.84 10.32 M49.84 10.32 C51.25 18.72, 48.45 25.06, 49.84 30.97 M49.84 10.32 C49.08 17.57, 50.16 24.17, 49.84 30.97 M49.84 30.97 C51.02 38.91, 48.03 42.07, 39.52 41.3 M49.84 30.97 C49.5 35.57, 45.65 41.33, 39.52 41.3 M39.52 41.3 C30.47 41.01, 20.11 40.34, 10.32 41.3 M39.52 41.3 C31.38 41.4, 21.38 40.63, 10.32 41.3 M10.32 41.3 C4.15 42.74, 0.98 36.5, 0 30.97 M10.32 41.3 C2.83 43.13, 2.04 39.94, 0 30.97 M0 30.97 C-1.11 23.44, -0.56 19.15, 0 10.32 M0 30.97 C0.37 23.06, 0.58 13.76, 0 10.32 M0 10.32 C-1.03 5.39, 3.58 1.09, 10.32 0 M0 10.32 C-2.12 2.82, 1.92 0.55, 10.32 0" stroke="#000000" stroke-width="1" fill="none"/></g><g stroke-linecap="round" transform="translate(261.2780128007376 24.766387939453125) rotate(0 24.922393798828125 20.649063110351562)"><path d="M2.75 2.39 C2.75 2.39, 2.75 2.39, 2.75 2.39 M2.75 2.39 C2.75 2.39, 2.75 2.39, 2.75 2.39 M3.14 8.03 C6.29 4.22, 7.73 3.2, 10.36 -0.27 M3.14 8.03 C5.44 5.54, 7.12 3.23, 10.36 -0.27 M2.88 14.43 C7.41 8.9, 11.09 4.34, 13.38 2.35 M2.88 14.43 C5.14 12.34, 7.38 8.57, 13.38 2.35 M2.62 20.83 C5.01 14.59, 9.83 11.26, 18.37 2.71 M2.62 20.83 C7.52 15.48, 13.2 9.97, 18.37 2.71 M2.36 27.23 C11.16 17.93, 20.56 7.91, 24.01 2.32 M2.36 27.23 C8.82 18.29, 17.4 9.84, 24.01 2.32 M2.75 32.87 C10.98 23.66, 16.36 14.13, 29 2.68 M2.75 32.87 C11.8 21.81, 22.31 11.01, 29 2.68 M2.49 39.27 C9.8 30.12, 16.94 20.49, 34.64 2.29 M2.49 39.27 C9.57 30.34, 16.28 21.85, 34.64 2.29 M6.82 40.38 C14.25 31.28, 23.39 24.47, 40.94 1.14 M6.82 40.38 C19.7 24.91, 33.89 10.13, 40.94 1.14 M11.15 41.5 C17.77 31.96, 27.62 24.05, 45.27 2.25 M11.15 41.5 C18.86 32.34, 27.07 22.95, 45.27 2.25 M16.14 41.86 C25.1 32.89, 35.56 20.14, 48.94 4.12 M16.14 41.86 C27.76 27.72, 39.59 14.95, 48.94 4.12 M21.78 41.46 C32.53 30.93, 41.14 16.11, 50.65 8.25 M21.78 41.46 C30.05 32.99, 36.55 23.93, 50.65 8.25 M26.77 41.82 C33.57 35.37, 40.46 24.89, 52.36 12.39 M26.77 41.82 C36.18 31.11, 46.56 20.11, 52.36 12.39 M32.41 41.43 C37.36 33.01, 46.31 24.03, 52.1 18.79 M32.41 41.43 C37.18 37.61, 40.24 32.23, 52.1 18.79 M37.4 41.79 C43.71 36.29, 49.01 30.11, 52.49 24.43 M37.4 41.79 C42.79 35.33, 48.27 29.58, 52.49 24.43 M41.73 42.9 C42.79 40.71, 45.92 38.41, 50.92 32.34 M41.73 42.9 C44.94 40.46, 47.53 36.29, 50.92 32.34" stroke="#fa5252" stroke-width="0.5" fill="none"/><path d="M10.32 0 M10.32 0 C19.68 0.48, 24.19 -0.66, 39.52 0 M10.32 0 C18.69 -0.19, 29.04 -0.42, 39.52 0 M39.52 0 C44.92 -0.79, 49.74 3.48, 49.84 10.32 M39.52 0 C47.06 0, 48.95 3.91, 49.84 10.32 M49.84 10.32 C49.16 15.95, 50.16 22.41, 49.84 30.97 M49.84 10.32 C49.95 17.97, 49.4 25.45, 49.84 30.97 M49.84 30.97 C49.67 36.08, 44.91 39.8, 39.52 41.3 M49.84 30.97 C51.03 38.2, 46.92 43.1, 39.52 41.3 M39.52 41.3 C30.26 42.08, 17.5 41.26, 10.32 41.3 M39.52 41.3 C32.99 41.46, 26.71 40.72, 10.32 41.3 M10.32 41.3 C2.38 42.19, -0.34 36.15, 0 30.97 M10.32 41.3 C5.02 39.72, -0.93 36.59, 0 30.97 M0 30.97 C-1.82 27.36, 2.08 22.74, 0 10.32 M0 30.97 C0.72 26.51, 0.97 21.81, 0 10.32 M0 10.32 C0.95 4.62, 2.25 1.54, 10.32 0 M0 10.32 C-0.77 2.8, 2.63 1.47, 10.32 0" stroke="#000000" stroke-width="1" fill="none"/></g><g stroke-linecap="round" transform="translate(386.5802588944876 24.994964599609375) rotate(0 24.922393798828125 20.649063110351562)"><path d="M2.75 2.39 C2.75 2.39, 2.75 2.39, 2.75 2.39 M2.75 2.39 C2.75 2.39, 2.75 2.39, 2.75 2.39 M3.14 8.03 C4.91 5.95, 8.35 3.24, 10.36 -0.27 M3.14 8.03 C4.69 5.68, 7.26 3.31, 10.36 -0.27 M2.88 14.43 C6.99 10.06, 7.8 6.72, 13.38 2.35 M2.88 14.43 C6.08 10.59, 8.61 7, 13.38 2.35 M2.62 20.83 C5.12 18.35, 12.16 13.33, 18.37 2.71 M2.62 20.83 C6.49 17.71, 9.5 14.21, 18.37 2.71 M2.36 27.23 C8.6 18.46, 14.89 14.18, 24.01 2.32 M2.36 27.23 C8.6 19.56, 15.41 11.72, 24.01 2.32 M2.75 32.87 C8.72 26.7, 12.98 19.2, 29 2.68 M2.75 32.87 C12.75 20.58, 23.42 9.46, 29 2.68 M2.49 39.27 C11.48 29.95, 18.35 22.09, 34.64 2.29 M2.49 39.27 C11.2 27.74, 21.19 16.35, 34.64 2.29 M6.82 40.38 C12.87 31.46, 21.96 23.01, 40.94 1.14 M6.82 40.38 C15.34 30.29, 25.02 20.13, 40.94 1.14 M11.15 41.5 C20.7 29.81, 32.63 20.02, 45.27 2.25 M11.15 41.5 C23.95 26.42, 37.78 10.84, 45.27 2.25 M16.14 41.86 C26.53 26.6, 41.86 14.69, 48.94 4.12 M16.14 41.86 C28.17 27.32, 41.12 14.63, 48.94 4.12 M21.78 41.46 C31.22 29.5, 39.21 19.91, 50.65 8.25 M21.78 41.46 C29.1 31.35, 38 22.51, 50.65 8.25 M26.77 41.82 C36.98 30.32, 47.12 21.55, 52.36 12.39 M26.77 41.82 C35.43 32.65, 44.1 22.2, 52.36 12.39 M32.41 41.43 C36.81 37.48, 41.57 31.37, 52.1 18.79 M32.41 41.43 C38.14 36.71, 41.48 30.44, 52.1 18.79 M37.4 41.79 C42.56 36.14, 47.02 31.74, 52.49 24.43 M37.4 41.79 C40.87 36.04, 45.69 32.49, 52.49 24.43 M41.73 42.9 C44.99 38.73, 47.09 36.43, 50.92 32.34 M41.73 42.9 C45.47 38.73, 48.12 34.62, 50.92 32.34" stroke="#fa5252" stroke-width="0.5" fill="none"/><path d="M10.32 0 M10.32 0 C21.67 0.02, 31.67 -1.49, 39.52 0 M10.32 0 C21.94 -1.02, 33.15 -0.99, 39.52 0 M39.52 0 C47.86 1.14, 49.77 4.6, 49.84 10.32 M39.52 0 C47.58 0.59, 49.27 4.99, 49.84 10.32 M49.84 10.32 C50.07 18.54, 50.72 23.37, 49.84 30.97 M49.84 10.32 C50.48 18.43, 50.71 25.86, 49.84 30.97 M49.84 30.97 C49.54 35.87, 45.74 41.32, 39.52 41.3 M49.84 30.97 C49.82 38.3, 48.54 40.92, 39.52 41.3 M39.52 41.3 C31.48 39.96, 22.16 42.1, 10.32 41.3 M39.52 41.3 C30.18 41.89, 20.62 40.49, 10.32 41.3 M10.32 41.3 C2.91 42.89, 1.78 39.67, 0 30.97 M10.32 41.3 C3.56 41.35, -1.6 36.58, 0 30.97 M0 30.97 C1.93 26.98, -1.82 22.05, 0 10.32 M0 30.97 C-0.65 25.3, -0.07 18.22, 0 10.32 M0 10.32 C-1.84 2.9, 2.12 0.48, 10.32 0 M0 10.32 C1.21 3.09, 3.09 1.57, 10.32 0" stroke="#000000" stroke-width="1" fill="none"/></g><g stroke-linecap="round" transform="translate(470.3632155428814 17.92022705078125) rotate(0 54.75311279296875 31.16583251953125)"><path d="M16.13 1.2 L93.95 1.62 L104.11 1.74 L105.48 7.14 L107.78 11.5 L109.16 47.27 L108.01 58.15 L102.75 59.11 L95.15 63.16 L16.94 61.39 L7.5 60.49 L1.37 55.37 L2.13 48.54 L-0.17 13.1 L0.75 7.65 L4.75 1.1 L14.28 -0.33" stroke="none" stroke-width="0" fill="#0000"/><path d="M15.58 0 M15.58 0 C45.36 -0.59, 75.5 -1.45, 93.92 0 M15.58 0 C42.3 1.46, 67.72 -0.46, 93.92 0 M93.92 0 C102.95 -0.99, 110.58 6.18, 109.51 15.58 M93.92 0 C105.08 1.58, 108.97 4.36, 109.51 15.58 M109.51 15.58 C110.01 24.31, 109.78 30.93, 109.51 46.75 M109.51 15.58 C108.72 24.63, 108.6 33.7, 109.51 46.75 M109.51 46.75 C107.75 57.13, 104.82 60.58, 93.92 62.33 M109.51 46.75 C109.42 59.15, 104.56 64.53, 93.92 62.33 M93.92 62.33 C72.03 61.38, 47.51 62.86, 15.58 62.33 M93.92 62.33 C66.71 62.48, 39.9 63.35, 15.58 62.33 M15.58 62.33 C3.61 62.52, -1.28 57.19, 0 46.75 M15.58 62.33 C3.11 63.79, 0.68 56.16, 0 46.75 M0 46.75 C-0.92 39.25, -1.07 29.4, 0 15.58 M0 46.75 C-0.21 37.82, 0.31 27.55, 0 15.58 M0 15.58 C-0.03 6.92, 6.88 1.77, 15.58 0 M0 15.58 C0.87 5.68, 4.47 0.59, 15.58 0" stroke="#000000" stroke-width="0.5" fill="none"/></g><g stroke-linecap="round" transform="translate(517.8225684648 24.994964599609375) rotate(0 24.92239379882813 20.649063110351562)"><path d="M2.75 2.39 C2.75 2.39, 2.75 2.39, 2.75 2.39 M2.75 2.39 C2.75 2.39, 2.75 2.39, 2.75 2.39 M3.14 8.03 C5.2 5.76, 8.52 1.53, 10.36 -0.27 M3.14 8.03 C4.8 6.29, 6.36 4.28, 10.36 -0.27 M2.88 14.43 C5.13 13.13, 9.24 9.55, 13.38 2.35 M2.88 14.43 C5.17 11.59, 8.54 7.71, 13.38 2.35 M2.62 20.83 C6.8 12.13, 14.02 7.34, 18.37 2.71 M2.62 20.83 C7.82 14.03, 13.16 8.15, 18.37 2.71 M2.36 27.23 C6.92 21.3, 10.81 15.86, 24.01 2.32 M2.36 27.23 C8.49 19.62, 15.02 11.8, 24.01 2.32 M2.75 32.87 C13.31 23.27, 22.01 12.94, 29 2.68 M2.75 32.87 C9.03 23.94, 16.77 17.21, 29 2.68 M2.49 39.27 C11.5 30.75, 22.18 17.05, 34.64 2.29 M2.49 39.27 C11.77 28.45, 22.92 15.95, 34.64 2.29 M6.82 40.38 C15.07 30.84, 24.13 18.82, 40.94 1.14 M6.82 40.38 C17.03 28.9, 28 16.16, 40.94 1.14 M11.15 41.5 C22.77 30.26, 31.59 17.17, 45.27 2.25 M11.15 41.5 C22.86 28.68, 32.67 15.08, 45.27 2.25 M16.14 41.86 C24.72 34.01, 31.08 24.69, 48.94 4.12 M16.14 41.86 C24.43 32.25, 33.15 22.52, 48.94 4.12 M21.78 41.46 C29.13 30.69, 38.92 22.17, 50.65 8.25 M21.78 41.46 C28.29 34.71, 33.45 28.36, 50.65 8.25 M26.77 41.82 C33.82 35.45, 38.66 27.01, 52.36 12.39 M26.77 41.82 C35.35 31.79, 45.69 20.15, 52.36 12.39 M32.41 41.43 C38.01 33.16, 46.96 27.51, 52.1 18.79 M32.41 41.43 C40.25 32.88, 48.27 24.04, 52.1 18.79 M37.4 41.79 C41.18 37.87, 46.32 30.67, 52.49 24.43 M37.4 41.79 C41.28 38.83, 43.51 34.32, 52.49 24.43 M41.73 42.9 C45.6 41.19, 47.09 37.53, 50.92 32.34 M41.73 42.9 C45.01 40.35, 47.03 36.91, 50.92 32.34" stroke="#fa5252" stroke-width="0.5" fill="none"/><path d="M10.32 0 M10.32 0 C20.71 0.27, 28.95 0.96, 39.52 0 M10.32 0 C17.38 0.8, 22.93 0.82, 39.52 0 M39.52 0 C47.43 0.51, 49.34 4.79, 49.84 10.32 M39.52 0 C47.72 -1.66, 50.11 3.87, 49.84 10.32 M49.84 10.32 C51.29 17.84, 51.33 25.63, 49.84 30.97 M49.84 10.32 C49.86 16.62, 49.68 24.91, 49.84 30.97 M49.84 30.97 C49.82 38.25, 48.26 40.97, 39.52 41.3 M49.84 30.97 C49.21 35.61, 44.99 41.2, 39.52 41.3 M39.52 41.3 C33.09 39.67, 24.47 42.15, 10.32 41.3 M39.52 41.3 C28.39 41.9, 18.67 42.01, 10.32 41.3 M10.32 41.3 C3.55 41.34, -1.39 36.75, 0 30.97 M10.32 41.3 C2.03 40.65, 0.9 40.01, 0 30.97 M0 30.97 C0.64 25.17, -1.71 15.64, 0 10.32 M0 30.97 C-0.93 22.49, -0.67 14.8, 0 10.32 M0 10.32 C1.05 3.14, 3.14 1.36, 10.32 0 M0 10.32 C1.73 2.4, 2.53 0.58, 10.32 0" stroke="#000000" stroke-width="1" fill="none"/></g><g stroke-linecap="round" transform="translate(18.584154778960055 223.44310211635025) rotate(0 17.905122528401392 27.170028500843188)"><path d="M-1.22 1.89 L34.34 -0.97 L34.8 55.98 L-1.13 53.25" stroke="none" stroke-width="0" fill="#fff"/><path d="M-0.74 0.83 C7.2 1.32, 19.82 -1.09, 34.25 -0.1 M-0.58 0.47 C8.92 0.66, 19.1 -0.3, 36.64 0.42 M33.92 0.51 C37.11 18.8, 36.93 39.3, 34.26 54.17 M36.38 0.06 C36.33 17.83, 35 33.43, 35.22 53.54 M34.57 54.47 C22.72 54.11, 12.73 53.4, -1.05 54.88 M35.56 53.78 C21.88 53.22, 9.24 55.07, 0.61 54.89 M0.17 55.56 C1.33 31.73, -1 11.51, 1.15 -1.04 M0.38 54.49 C-0.86 36.05, 0.05 15.6, -0.92 -0.28" stroke="#c92a2a" stroke-width="2" fill="none"/></g><g stroke-linecap="round" transform="translate(14.760147223694162 219.88628030154473) rotate(0 17.905122528401392 27.170028500843188)"><path d="M-1.47 -0.97 L34.8 1.64 L34.68 53.25 L0.4 55.45" stroke="none" stroke-width="0" fill="#fff"/><path d="M-1.72 1.48 C14.22 -1.09, 22.95 -0.25, 35.17 -1.29 M-0.67 0.4 C8.14 -0.72, 17.26 0.26, 36.47 -0.99 M37.64 -1.09 C36.95 16.54, 33.75 33.91, 36.01 53.57 M36.54 0.98 C35.52 12.43, 35.53 24.62, 36.1 55.27 M34.5 53.97 C24.15 53.28, 10.48 54.9, 1.61 54.62 M35.5 53.35 C27 55, 17.48 54.69, 0.87 53.4 M0.82 52.73 C-1.56 40.86, 1.11 28, 1 -0.19 M-0.92 55.07 C-0.2 39.67, -1.12 26.09, -0.61 0.94" stroke="#c92a2a" stroke-width="2" fill="none"/></g><g stroke-linecap="round" transform="translate(10 215.70432867493207) rotate(0 17.905122528401392 27.170028500843188)"><path d="M-1.01 1.64 L34.68 -1.09 L36.21 55.45 L1.61 54.68" stroke="none" stroke-width="0" fill="#fff"/><path d="M1.97 -0.94 C10.67 -0.36, 23.81 -1.56, 34.4 -1.16 M-0.08 -0.56 C13.26 0.28, 25.51 -1.13, 35.95 -0.94 M37.47 -0.5 C34.76 17.52, 36.51 34.61, 34.49 55.48 M35.21 -0.28 C35.62 15.84, 36.5 34.2, 36.2 53.72 M36.29 53.26 C23.79 54.82, 15.47 54.56, -0.71 53.83 M36.47 55.2 C27.66 54.54, 19.17 53.05, -0.67 54.42 M-1.51 53.52 C0.93 33.68, 0.78 14.9, -0.85 0.76 M0 53.65 C-0.42 36.94, -0.11 21.06, -0.73 -0.48" stroke="#c92a2a" stroke-width="2" fill="none"/></g><g stroke-linecap="round"><g transform="translate(16.0730828100219 240.40276612847765) rotate(0 11.80014737451097 -0.7435709304486693)"><path d="M-0.57 -0.93 C2.69 -1.18, 16.52 -0.06, 20.42 -0.31 C24.32 -0.55, 22.41 -2.3, 22.82 -2.41 M1.34 1.19 C4.35 1.62, 15.45 1.48, 19.44 1.03 C23.44 0.57, 24.75 -0.83, 25.31 -1.54" stroke="#c92a2a" stroke-width="2" fill="none"/></g></g><mask/><g stroke-linecap="round"><g transform="translate(17.013071087032017 224.46045888441182) rotate(0 11.543669285457696 -0.7101641205299245)"><path d="M-0.06 -0.39 C1.33 -0.61, 4.01 -2.4, 7.75 -2.27 C11.49 -2.14, 19.97 -0.03, 22.39 0.4 M-1.55 -1.64 C0.27 -1.65, 6.26 -1.17, 10.06 -1.17 C13.86 -1.18, 19.25 -1.51, 21.26 -1.65" stroke="#c92a2a" stroke-width="2" fill="none"/></g></g><mask/><g stroke-linecap="round"><g transform="translate(16.974260920987376 258.60671697941615) rotate(0 12.245212293750484 0.08868763325600071)"><path d="M-0.78 -0.85 C1.35 -0.71, 9.51 0.02, 12.69 0.43 C15.86 0.85, 16.31 2.01, 18.26 1.66 C20.21 1.31, 23.19 -1.31, 24.4 -1.66 M1.02 1.32 C3.54 1.14, 11.75 -1.1, 15.03 -1.39 C18.32 -1.68, 19.14 -0.51, 20.74 -0.43 C22.33 -0.35, 23.96 -1.01, 24.6 -0.91" stroke="#c92a2a" stroke-width="2" fill="none"/></g></g><mask/><g stroke-linecap="round"><g transform="translate(15.361020972930987 264.30320799229264) rotate(0 13.783003189040613 -0.4267450557357222)"><path d="M-0.7 0.56 C0.16 0.69, 2.89 0.17, 4.35 -0.11 C5.81 -0.38, 4.73 -1.25, 8.08 -1.09 C11.43 -0.94, 21.06 1.03, 24.44 0.82 C27.82 0.61, 27.81 -1.83, 28.36 -2.35 M1.14 -0.19 C2.45 -0.35, 5.62 -1.98, 6.64 -1.97 C7.66 -1.96, 4.17 -0.21, 7.27 -0.13 C10.36 -0.04, 21.87 -1.06, 25.21 -1.47 C28.55 -1.88, 26.64 -2.78, 27.31 -2.58" stroke="#c92a2a" stroke-width="2" fill="none"/></g></g><mask/><g stroke-linecap="round"><g transform="translate(15.5053404229418 232.091113420066) rotate(0 11.888513774941117 0.3276022650092898)"><path d="M-0.8 0.48 C0.84 0.23, 4.86 -1.13, 9.13 -0.97 C13.39 -0.8, 22.2 1.34, 24.78 1.46 M0.98 -0.31 C2.51 -0.47, 4.21 0.27, 8.13 0.22 C12.06 0.17, 21.68 -0.62, 24.53 -0.61" stroke="#c92a2a" stroke-width="2" fill="none"/></g></g><mask/><g stroke-linecap="round"><g transform="translate(15.559800750345289 249.56255174085533) rotate(0 11.888513774941117 0.3276022650092898)"><path d="M-0.09 -0.67 C0.89 -0.54, 3.42 1.37, 5.1 1.23 C6.78 1.1, 6.87 -1.25, 10.01 -1.48 C13.15 -1.72, 21.6 -0.77, 23.94 -0.18 M-1.6 1.6 C-0.62 1.32, 2.8 -0.23, 4.68 -0.62 C6.55 -1.02, 6.4 -0.95, 9.66 -0.79 C12.93 -0.63, 22.09 0.3, 24.27 0.33" stroke="#c92a2a" stroke-width="2" fill="none"/></g></g><mask/><g stroke-linecap="round" transform="translate(78.8240920077252 210.66641235351562) rotate(0 160.0535888671875 38.53240966796875)"><path d="M19.27 0 M19.27 0 C98.36 1.02, 175.59 1.16, 300.84 0 M19.27 0 C109.4 -1.18, 201 -0.65, 300.84 0 M300.84 0 C312.67 1.11, 320.73 5.51, 320.11 19.27 M300.84 0 C311.39 -0.88, 320.83 7.51, 320.11 19.27 M320.11 19.27 C319.05 29.01, 322.1 41.31, 320.11 57.8 M320.11 19.27 C319.81 29.1, 319.73 39.53, 320.11 57.8 M320.11 57.8 C319.06 69.2, 314.19 78.19, 300.84 77.06 M320.11 57.8 C319.46 70, 313.73 76.13, 300.84 77.06 M300.84 77.06 C227.08 77.7, 150.42 76.23, 19.27 77.06 M300.84 77.06 C231.96 76.37, 162.73 76.53, 19.27 77.06 M19.27 77.06 C6.84 77.37, -0.53 72.34, 0 57.8 M19.27 77.06 C4.48 78.61, -0.43 72.44, 0 57.8 M0 57.8 C0.33 42.12, -1 26.88, 0 19.27 M0 57.8 C-0.52 43.12, -0.7 29.12, 0 19.27 M0 19.27 C0.92 8.09, 5.25 0.92, 19.27 0 M0 19.27 C-0.51 6.39, 6.23 0.23, 19.27 0" stroke="#000000" stroke-width="1" fill="none"/></g><g stroke-linecap="round" transform="translate(94.62652120694395 218.12948608398438) rotate(0 24.464111328125 31.16583251953125)"><path d="M12.08 -0.2 L41.56 0.74 L45.09 3.19 L45.44 4.88 L48.8 10.95 L49.93 51.75 L46.63 56.14 L43.63 61.06 L34.94 62.12 L9.91 63.25 L5.19 60.39 L2.45 59.06 L1.86 49.81 L-1.52 10.24 L0.91 6.74 L5.91 1.46 L12.89 0.2" stroke="none" stroke-width="0" fill="#0000"/><path d="M12.23 0 M12.23 0 C17.66 -0.91, 24.81 -0.25, 36.7 0 M12.23 0 C19.5 0.93, 26.38 -0.51, 36.7 0 M36.7 0 C43.26 -1.27, 47.31 4.77, 48.93 12.23 M36.7 0 C46.81 -2.15, 51.18 5.29, 48.93 12.23 M48.93 12.23 C50.49 23.95, 49.92 34.35, 48.93 50.1 M48.93 12.23 C48.85 24.24, 47.78 37.91, 48.93 50.1 M48.93 50.1 C48.25 56.83, 44.02 63.38, 36.7 62.33 M48.93 50.1 C46.86 60.5, 43.31 64.27, 36.7 62.33 M36.7 62.33 C28.85 64.44, 18.09 61.38, 12.23 62.33 M36.7 62.33 C29.99 63.06, 24.15 62.3, 12.23 62.33 M12.23 62.33 C3.37 64.19, -0.16 59.29, 0 50.1 M12.23 62.33 C5 62.19, 0.79 57.78, 0 50.1 M0 50.1 C-0.71 41.43, -0.78 30.23, 0 12.23 M0 50.1 C-0.17 41.25, 0.29 33.44, 0 12.23 M0 12.23 C1.79 5.11, 2.58 1.03, 12.23 0 M0 12.23 C-2.19 2.2, 2.94 1.6, 12.23 0" stroke="#000000" stroke-width="0.5" fill="none"/></g><g stroke-linecap="round"><g transform="translate(218.76241598233452 98.86123050129964) rotate(0 -0.0061223197593278655 50.6013976888033)"><path d="M0.54 -0.86 C0.63 16.02, -0.15 83.43, -0.08 100.58 M-0.63 1.3 C-0.65 18.39, -1.29 85.31, -1.06 101.79" stroke="#000000" stroke-width="1" fill="none"/></g><g transform="translate(218.76241598233452 98.86123050129964) rotate(0 -0.0061223197593278655 50.6013976888033)"><path d="M-12.77 73.49 C-10 82.16, -4.98 88.78, 0.18 101.77 M-11.17 74.13 C-7.8 82.73, -4.76 91.79, -2.05 102.38" stroke="#000000" stroke-width="1" fill="none"/></g><g transform="translate(218.76241598233452 98.86123050129964) rotate(0 -0.0061223197593278655 50.6013976888033)"><path d="M7.75 73.48 C5.46 82.25, 5.42 88.87, 0.18 101.77 M9.35 74.12 C5.77 82.63, 1.85 91.69, -2.05 102.38" stroke="#000000" stroke-width="1" fill="none"/></g></g><mask/><g stroke-linecap="round" transform="translate(156.9837599764752 218.12948608398438) rotate(0 24.464111328125 31.16583251953125)"><path d="M13.37 -0.26 L40.22 0.39 L43.05 1.65 L45.43 4.21 L47.8 12.83 L48.46 50.07 L46.2 53.66 L44.07 62.04 L35.78 60.88 L7.78 60.87 L3.16 61.31 L3.42 55.69 L1.96 51.15 L0.39 10.55 L3.3 6.12 L4.76 2.49 L10.88 0.58" stroke="none" stroke-width="0" fill="#0000"/><path d="M12.23 0 M12.23 0 C17.22 -1.88, 25.55 -0.72, 36.7 0 M12.23 0 C16.93 0.85, 22.75 0.71, 36.7 0 M36.7 0 C45.98 1.51, 50.1 4.96, 48.93 12.23 M36.7 0 C47.11 -1.34, 47.66 3.37, 48.93 12.23 M48.93 12.23 C50.34 25.3, 48.82 35.19, 48.93 50.1 M48.93 12.23 C49.3 27.04, 49.24 41.76, 48.93 50.1 M48.93 50.1 C48.17 59.57, 42.92 61.87, 36.7 62.33 M48.93 50.1 C50.37 57.64, 44.83 60.45, 36.7 62.33 M36.7 62.33 C26.75 63.37, 18.88 64.13, 12.23 62.33 M36.7 62.33 C27.14 61.64, 19 63.15, 12.23 62.33 M12.23 62.33 C3.84 63.88, -0.37 56.96, 0 50.1 M12.23 62.33 C3.18 60.72, 1.31 56.13, 0 50.1 M0 50.1 C0.43 43.07, 1.21 33.08, 0 12.23 M0 50.1 C0.63 36.77, -1.1 24.68, 0 12.23 M0 12.23 C0.46 4.88, 4.44 0.78, 12.23 0 M0 12.23 C-1.15 4.73, 1.78 -1, 12.23 0" stroke="#000000" stroke-width="0.5" fill="none"/></g><g stroke-linecap="round" transform="translate(215.8488722811627 218.12948608398438) rotate(0 24.464111328125 31.16583251953125)"><path d="M12.43 1.19 L41.14 1.53 L44.13 2.49 L45.86 5.35 L47.74 13.29 L49.22 49.2 L46.32 57 L43.47 59.19 L35.86 63.38 L7.57 64.09 L3.44 62.3 L2.85 59.06 L1.17 50.98 L2.15 8.2 L0.62 4.16 L5.03 2.56 L11.98 1.25" stroke="none" stroke-width="0" fill="#0000"/><path d="M12.23 0 M12.23 0 C22.94 -0.07, 30.96 0.89, 36.7 0 M12.23 0 C19.04 0.71, 25.64 -0.18, 36.7 0 M36.7 0 C46.11 -0.53, 48.91 2.44, 48.93 12.23 M36.7 0 C46.2 -1.19, 49.05 2.73, 48.93 12.23 M48.93 12.23 C49.91 24.03, 49.91 36.92, 48.93 50.1 M48.93 12.23 C48.62 21.27, 48.56 28.11, 48.93 50.1 M48.93 50.1 C48.15 56.85, 45.99 60.48, 36.7 62.33 M48.93 50.1 C47.29 56.95, 44.83 62.58, 36.7 62.33 M36.7 62.33 C28.07 64.26, 18.97 64.34, 12.23 62.33 M36.7 62.33 C31.09 62.74, 25.22 62.72, 12.23 62.33 M12.23 62.33 C3.08 62.9, -2 57.38, 0 50.1 M12.23 62.33 C4.63 61.32, -0.38 58.59, 0 50.1 M0 50.1 C-1.37 38, 1.22 29.75, 0 12.23 M0 50.1 C0.47 41.89, -0.37 32.39, 0 12.23 M0 12.23 C-1.59 3.3, 3.61 -1.41, 12.23 0 M0 12.23 C-1.33 2.44, 6.36 1.81, 12.23 0" stroke="#000000" stroke-width="0.5" fill="none"/></g><g stroke-linecap="round" transform="translate(277.57061300381895 218.12948608398438) rotate(0 24.464111328125 31.16583251953125)"><path d="M10.45 1.9 L41.42 -0.32 L42.7 2.78 L45.7 4.36 L48.28 10.64 L48.57 49.95 L48.23 57.28 L45.06 59.1 L36.13 63.19 L8.56 63.54 L4.28 59.35 L2.44 55.73 L1.66 50.49 L1.18 7.43 L0.29 5.23 L5.64 -0.24 L10.48 -0.8" stroke="none" stroke-width="0" fill="#0000"/><path d="M12.23 0 M12.23 0 C16.33 1.3, 23.69 -1.59, 36.7 0 M12.23 0 C17.37 0.05, 22.56 -0.42, 36.7 0 M36.7 0 C45.2 -1.76, 48.3 2.91, 48.93 12.23 M36.7 0 C46.77 -2.23, 48.84 6.3, 48.93 12.23 M48.93 12.23 C48.34 22.6, 50.9 31.27, 48.93 50.1 M48.93 12.23 C49.61 25.4, 47.94 36.76, 48.93 50.1 M48.93 50.1 C49.21 59.98, 46.83 62.21, 36.7 62.33 M48.93 50.1 C47.14 58.8, 43.73 60.97, 36.7 62.33 M36.7 62.33 C28.26 63.25, 20.92 61.89, 12.23 62.33 M36.7 62.33 C28.53 63.19, 20.69 61.69, 12.23 62.33 M12.23 62.33 C5.2 63.14, -0.49 57.76, 0 50.1 M12.23 62.33 C3.21 63.16, 0.76 59.01, 0 50.1 M0 50.1 C1.97 40.48, 1.51 29.87, 0 12.23 M0 50.1 C-0.39 35.21, -0.38 20.92, 0 12.23 M0 12.23 C0.92 4.91, 2.32 1.31, 12.23 0 M0 12.23 C0.72 4.68, 6.19 -0.92, 12.23 0" stroke="#000000" stroke-width="0.5" fill="none"/></g><g stroke-linecap="round" transform="translate(339.9711280351126 218.41665649414062) rotate(0 23.39404296875 30.249069213867188)"><path d="M3.11 2.71 C3.11 2.71, 3.11 2.71, 3.11 2.71 M3.11 2.71 C3.11 2.71, 3.11 2.71, 3.11 2.71 M1.54 10.61 C5.16 7.38, 5.67 5.83, 10.07 0.8 M1.54 10.61 C4.85 7.42, 7.03 3.66, 10.07 0.8 M1.93 16.26 C8.09 9.26, 13.38 3.71, 14.4 1.92 M1.93 16.26 C5.95 13.59, 8.55 8.85, 14.4 1.92 M1.67 22.65 C7.45 17.39, 10.68 13.04, 19.39 2.28 M1.67 22.65 C7.86 14.27, 16.08 7.2, 19.39 2.28 M1.41 29.05 C8.38 19.24, 17.14 9.02, 25.03 1.88 M1.41 29.05 C8.55 20.12, 15.99 11.53, 25.03 1.88 M1.81 34.7 C8.81 25.3, 15.41 19.73, 30.02 2.24 M1.81 34.7 C7.92 28.51, 13.65 20.34, 30.02 2.24 M1.54 41.09 C11.03 28.67, 24.87 15.07, 35 2.6 M1.54 41.09 C12.76 30.05, 21.44 17.26, 35 2.6 M-0.03 49 C10.83 38.92, 18.3 26.68, 40.65 2.21 M-0.03 49 C15.06 32.1, 28.77 16.01, 40.65 2.21 M1.02 53.89 C17.13 37.6, 30.66 19.44, 44.32 4.08 M1.02 53.89 C17.71 34.48, 33.74 15.28, 44.32 4.08 M3.38 57.27 C17.61 39.31, 30.29 22.53, 47.34 6.7 M3.38 57.27 C19.91 38.41, 35.79 19.03, 47.34 6.7 M6.4 59.89 C22.03 43.3, 37.26 23, 47.74 12.35 M6.4 59.89 C14.18 50.57, 23.2 38.66, 47.74 12.35 M10.08 61.76 C22.67 46.8, 36.17 32.07, 47.47 18.74 M10.08 61.76 C25.07 44.4, 39.18 28.78, 47.47 18.74 M15.72 61.37 C27.58 50.05, 36.2 39.34, 47.87 24.39 M15.72 61.37 C26.64 49.3, 38.83 36.94, 47.87 24.39 M20.71 61.73 C27.8 54.96, 34.3 46.44, 47.61 30.78 M20.71 61.73 C30 51.83, 37.7 40.54, 47.61 30.78 M26.35 61.33 C34.04 53.43, 38.6 46.47, 47.35 37.18 M26.35 61.33 C31.45 56.23, 35.31 50.96, 47.35 37.18 M31.34 61.69 C36.25 57.19, 38.64 53.78, 47.74 42.82 M31.34 61.69 C36.25 56.74, 41.32 49.82, 47.74 42.82 M36.33 62.05 C41.09 57.66, 44.8 54.35, 47.48 49.22 M36.33 62.05 C40.48 57.18, 43.72 53.78, 47.48 49.22" stroke="#fa5252" stroke-width="0.5" fill="none"/><path d="M11.7 0 M11.7 0 C21.04 0.65, 29.08 1.38, 35.09 0 M11.7 0 C19.8 -1.08, 27.88 -0.08, 35.09 0 M35.09 0 C42.87 0.39, 48.65 3.57, 46.79 11.7 M35.09 0 C42.25 -2.25, 45.38 3.8, 46.79 11.7 M46.79 11.7 C47.16 18.91, 45.6 30.37, 46.79 48.8 M46.79 11.7 C46.7 26.3, 47.86 40.22, 46.79 48.8 M46.79 48.8 C46.89 56.64, 41.5 59.39, 35.09 60.5 M46.79 48.8 C45.37 55.96, 43.79 62.66, 35.09 60.5 M35.09 60.5 C27.43 61.96, 16.98 59.58, 11.7 60.5 M35.09 60.5 C24.87 60.35, 15.83 60.87, 11.7 60.5 M11.7 60.5 C4.95 60.19, -0.3 57.96, 0 48.8 M11.7 60.5 C5.63 59.46, -0.91 57.18, 0 48.8 M0 48.8 C-1.6 35.52, 1.57 24.26, 0 11.7 M0 48.8 C0.22 38.63, 0.07 29.93, 0 11.7 M0 11.7 C0.72 4.01, 4.61 0.6, 11.7 0 M0 11.7 C-1.09 2.94, 3.18 -1.8, 11.7 0" stroke="#000000" stroke-width="1" fill="none"/></g></svg>